<mxfile host="app.diagrams.net" modified="2021-06-04T14:37:37.887Z" agent="5.0 (X11)" etag="SRUpvTl1igJrvcmR19y3" version="14.7.1" type="github">
  <diagram id="oIiptdsssOHyiysu_K8g" name="Page-1">
    <mxGraphModel dx="1185" dy="687" grid="1" gridSize="10" guides="1" tooltips="1" connect="1" arrows="1" fold="1" page="1" pageScale="1" pageWidth="1100" pageHeight="850" math="0" shadow="0">
      <root>
        <mxCell id="0" />
        <mxCell id="1" parent="0" />
        <mxCell id="DCuNwkEkpNUcei92U7mz-26" value="&lt;b&gt;&quot;Ground Segment&quot;&lt;/b&gt;" style="rounded=0;whiteSpace=wrap;html=1;fontFamily=Noto Sans;fontSource=https%3A%2F%2Ffonts.googleapis.com%2Fcss%3Ffamily%3DNoto%2BSans;verticalAlign=top;fillColor=#d5e8d4;strokeColor=none;" vertex="1" parent="1">
          <mxGeometry x="140" y="260" width="400" height="250" as="geometry" />
        </mxCell>
        <mxCell id="DCuNwkEkpNUcei92U7mz-25" value="&lt;b&gt;&quot;Space Segment&quot;&lt;/b&gt;" style="rounded=0;whiteSpace=wrap;html=1;fontFamily=Noto Sans;fontSource=https%3A%2F%2Ffonts.googleapis.com%2Fcss%3Ffamily%3DNoto%2BSans;verticalAlign=top;fillColor=#dae8fc;strokeColor=none;" vertex="1" parent="1">
          <mxGeometry x="680" y="253" width="410" height="337" as="geometry" />
        </mxCell>
        <mxCell id="DCuNwkEkpNUcei92U7mz-5" value="I&lt;sup&gt;2&lt;/sup&gt;C" style="edgeStyle=orthogonalEdgeStyle;rounded=0;orthogonalLoop=1;jettySize=auto;html=1;exitX=1;exitY=0.25;exitDx=0;exitDy=0;entryX=0;entryY=0.5;entryDx=0;entryDy=0;startArrow=classic;startFill=1;fontFamily=Noto Sans;fontSource=https%3A%2F%2Ffonts.googleapis.com%2Fcss%3Ffamily%3DNoto%2BSans;labelBackgroundColor=none;" edge="1" parent="1" source="DCuNwkEkpNUcei92U7mz-1" target="DCuNwkEkpNUcei92U7mz-3">
          <mxGeometry x="-0.0001" y="22" relative="1" as="geometry">
            <Array as="points">
              <mxPoint x="905" y="342" />
            </Array>
            <mxPoint as="offset" />
          </mxGeometry>
        </mxCell>
        <mxCell id="DCuNwkEkpNUcei92U7mz-6" value="I&lt;sup&gt;2&lt;/sup&gt;C" style="edgeStyle=orthogonalEdgeStyle;rounded=0;orthogonalLoop=1;jettySize=auto;html=1;exitX=1;exitY=0.75;exitDx=0;exitDy=0;entryX=0;entryY=0.5;entryDx=0;entryDy=0;startArrow=classic;startFill=1;fontFamily=Noto Sans;fontSource=https%3A%2F%2Ffonts.googleapis.com%2Fcss%3Ffamily%3DNoto%2BSans;labelBackgroundColor=none;" edge="1" parent="1" source="DCuNwkEkpNUcei92U7mz-1" target="DCuNwkEkpNUcei92U7mz-4">
          <mxGeometry x="0.0073" y="17" relative="1" as="geometry">
            <mxPoint as="offset" />
          </mxGeometry>
        </mxCell>
        <mxCell id="DCuNwkEkpNUcei92U7mz-1" value="&lt;div&gt;ATSAMV71Q21&lt;/div&gt;&lt;div&gt;Microcontroller Board&lt;br&gt;&lt;/div&gt;" style="whiteSpace=wrap;html=1;aspect=fixed;verticalAlign=top;spacingTop=10;fontFamily=Noto Sans;fontSource=https%3A%2F%2Ffonts.googleapis.com%2Fcss%3Ffamily%3DNoto%2BSans;" vertex="1" parent="1">
          <mxGeometry x="700" y="300" width="170" height="170" as="geometry" />
        </mxCell>
        <mxCell id="DCuNwkEkpNUcei92U7mz-2" value="" style="shape=image;verticalLabelPosition=bottom;labelBackgroundColor=#ffffff;verticalAlign=top;aspect=fixed;imageAspect=0;image=https://il.farnell.com/productimages/large/en_GB/2468259-40.jpg;fontFamily=Noto Sans;fontSource=https%3A%2F%2Ffonts.googleapis.com%2Fcss%3Ffamily%3DNoto%2BSans;" vertex="1" parent="1">
          <mxGeometry x="725.22" y="360" width="119.54" height="100" as="geometry" />
        </mxCell>
        <mxCell id="DCuNwkEkpNUcei92U7mz-3" value="&lt;div&gt;MCP9808&lt;/div&gt;&lt;div&gt;Temperature Sensor&lt;/div&gt;&lt;div&gt;#1&lt;br&gt;&lt;/div&gt;" style="rounded=1;whiteSpace=wrap;html=1;verticalAlign=middle;fillColor=#fff2cc;strokeColor=#d6b656;fontFamily=Noto Sans;fontSource=https%3A%2F%2Ffonts.googleapis.com%2Fcss%3Ffamily%3DNoto%2BSans;" vertex="1" parent="1">
          <mxGeometry x="940" y="313" width="130" height="60" as="geometry" />
        </mxCell>
        <mxCell id="DCuNwkEkpNUcei92U7mz-4" value="&lt;div&gt;MCP9808&lt;/div&gt;&lt;div&gt;Temperature Sensor&lt;/div&gt;&lt;div&gt;#2&lt;br&gt;&lt;/div&gt;" style="rounded=1;whiteSpace=wrap;html=1;verticalAlign=middle;fillColor=#fff2cc;strokeColor=#d6b656;fontFamily=Noto Sans;fontSource=https%3A%2F%2Ffonts.googleapis.com%2Fcss%3Ffamily%3DNoto%2BSans;" vertex="1" parent="1">
          <mxGeometry x="940" y="397" width="130" height="60" as="geometry" />
        </mxCell>
        <mxCell id="DCuNwkEkpNUcei92U7mz-8" value="ARM Cortex-M7 core" style="rounded=0;whiteSpace=wrap;html=1;verticalAlign=middle;fontFamily=Noto Sans;fontSource=https%3A%2F%2Ffonts.googleapis.com%2Fcss%3Ffamily%3DNoto%2BSans;" vertex="1" parent="1">
          <mxGeometry x="700" y="470" width="170" height="30" as="geometry" />
        </mxCell>
        <mxCell id="DCuNwkEkpNUcei92U7mz-9" value="FreeRTOS" style="rounded=0;whiteSpace=wrap;html=1;verticalAlign=middle;fontFamily=Noto Sans;fontSource=https%3A%2F%2Ffonts.googleapis.com%2Fcss%3Ffamily%3DNoto%2BSans;" vertex="1" parent="1">
          <mxGeometry x="700" y="500" width="170" height="30" as="geometry" />
        </mxCell>
        <mxCell id="DCuNwkEkpNUcei92U7mz-10" value="ECSS Services" style="rounded=0;whiteSpace=wrap;html=1;verticalAlign=middle;fontFamily=Noto Sans;fontSource=https%3A%2F%2Ffonts.googleapis.com%2Fcss%3Ffamily%3DNoto%2BSans;" vertex="1" parent="1">
          <mxGeometry x="700" y="530" width="170" height="30" as="geometry" />
        </mxCell>
        <mxCell id="DCuNwkEkpNUcei92U7mz-13" style="edgeStyle=orthogonalEdgeStyle;rounded=0;orthogonalLoop=1;jettySize=auto;html=1;exitX=1;exitY=0.5;exitDx=0;exitDy=0;entryX=0;entryY=0.5;entryDx=0;entryDy=0;startArrow=classic;startFill=1;fontFamily=Noto Sans;fontSource=https%3A%2F%2Ffonts.googleapis.com%2Fcss%3Ffamily%3DNoto%2BSans;" edge="1" parent="1" source="DCuNwkEkpNUcei92U7mz-11" target="DCuNwkEkpNUcei92U7mz-1">
          <mxGeometry relative="1" as="geometry" />
        </mxCell>
        <mxCell id="DCuNwkEkpNUcei92U7mz-14" value="USB" style="edgeLabel;html=1;align=center;verticalAlign=middle;resizable=0;points=[];fontFamily=Noto Sans;fontSource=https%3A%2F%2Ffonts.googleapis.com%2Fcss%3Ffamily%3DNoto%2BSans;" vertex="1" connectable="0" parent="DCuNwkEkpNUcei92U7mz-13">
          <mxGeometry x="0.3692" y="1" relative="1" as="geometry">
            <mxPoint x="-40" y="-11" as="offset" />
          </mxGeometry>
        </mxCell>
        <mxCell id="DCuNwkEkpNUcei92U7mz-15" value="ECSS TC &amp;amp; TM" style="edgeLabel;html=1;align=center;verticalAlign=middle;resizable=0;points=[];fontFamily=Noto Sans;fontSource=https%3A%2F%2Ffonts.googleapis.com%2Fcss%3Ffamily%3DNoto%2BSans;" vertex="1" connectable="0" parent="DCuNwkEkpNUcei92U7mz-13">
          <mxGeometry x="0.404" y="1" relative="1" as="geometry">
            <mxPoint x="-43" y="16" as="offset" />
          </mxGeometry>
        </mxCell>
        <mxCell id="DCuNwkEkpNUcei92U7mz-11" value="&lt;div&gt;Desktop&lt;/div&gt;&lt;div&gt;Computer&lt;/div&gt;" style="whiteSpace=wrap;html=1;aspect=fixed;verticalAlign=top;spacingTop=10;fontFamily=Noto Sans;fontSource=https%3A%2F%2Ffonts.googleapis.com%2Fcss%3Ffamily%3DNoto%2BSans;" vertex="1" parent="1">
          <mxGeometry x="340" y="300" width="170" height="170" as="geometry" />
        </mxCell>
        <mxCell id="DCuNwkEkpNUcei92U7mz-12" value="" style="points=[];aspect=fixed;html=1;align=center;shadow=0;dashed=0;image;image=img/lib/allied_telesis/computer_and_terminals/Personal_Computer.svg;fontFamily=Noto Sans;fontSource=https%3A%2F%2Ffonts.googleapis.com%2Fcss%3Ffamily%3DNoto%2BSans;" vertex="1" parent="1">
          <mxGeometry x="388.24" y="360" width="75.11" height="101.8" as="geometry" />
        </mxCell>
        <mxCell id="DCuNwkEkpNUcei92U7mz-19" style="edgeStyle=orthogonalEdgeStyle;rounded=0;orthogonalLoop=1;jettySize=auto;html=1;exitX=1;exitY=0.5;exitDx=0;exitDy=0;entryX=0;entryY=0.5;entryDx=0;entryDy=0;startArrow=classic;startFill=1;fontFamily=Noto Sans;fontSource=https%3A%2F%2Ffonts.googleapis.com%2Fcss%3Ffamily%3DNoto%2BSans;" edge="1" parent="1" source="DCuNwkEkpNUcei92U7mz-17" target="DCuNwkEkpNUcei92U7mz-11">
          <mxGeometry relative="1" as="geometry" />
        </mxCell>
        <mxCell id="DCuNwkEkpNUcei92U7mz-24" style="edgeStyle=orthogonalEdgeStyle;rounded=0;orthogonalLoop=1;jettySize=auto;html=1;exitX=0;exitY=0.5;exitDx=0;exitDy=0;startArrow=classic;startFill=1;fontFamily=Noto Sans;fontSource=https%3A%2F%2Ffonts.googleapis.com%2Fcss%3Ffamily%3DNoto%2BSans;" edge="1" parent="1" source="DCuNwkEkpNUcei92U7mz-17" target="DCuNwkEkpNUcei92U7mz-23">
          <mxGeometry relative="1" as="geometry" />
        </mxCell>
        <mxCell id="DCuNwkEkpNUcei92U7mz-17" value="&lt;div&gt;YAMCS&lt;/div&gt;&lt;div&gt;Mission Control System&lt;br&gt;&lt;/div&gt;" style="rounded=0;whiteSpace=wrap;html=1;verticalAlign=top;spacingTop=10;fontFamily=Noto Sans;fontSource=https%3A%2F%2Ffonts.googleapis.com%2Fcss%3Ffamily%3DNoto%2BSans;" vertex="1" parent="1">
          <mxGeometry x="160" y="300" width="120" height="170" as="geometry" />
        </mxCell>
        <mxCell id="DCuNwkEkpNUcei92U7mz-18" value="" style="shape=image;verticalLabelPosition=bottom;labelBackgroundColor=#ffffff;verticalAlign=top;aspect=fixed;imageAspect=0;image=https://yamcs.org/static/logo.png;fontFamily=Noto Sans;fontSource=https%3A%2F%2Ffonts.googleapis.com%2Fcss%3Ffamily%3DNoto%2BSans;" vertex="1" parent="1">
          <mxGeometry x="170" y="389.75" width="100" height="42.31" as="geometry" />
        </mxCell>
        <mxCell id="DCuNwkEkpNUcei92U7mz-23" value="Operator" style="outlineConnect=0;strokeColor=#3700CC;dashed=0;verticalLabelPosition=bottom;verticalAlign=top;align=center;html=1;fontSize=12;fontStyle=0;aspect=fixed;pointerEvents=1;shape=mxgraph.aws4.user;fillColor=#6a00ff;fontFamily=Noto Sans;fontSource=https%3A%2F%2Ffonts.googleapis.com%2Fcss%3Ffamily%3DNoto%2BSans;" vertex="1" parent="1">
          <mxGeometry x="20" y="346" width="78" height="78" as="geometry" />
        </mxCell>
      </root>
    </mxGraphModel>
  </diagram>
</mxfile>
